<?xml version="1.0" standalone="no"?>
<!DOCTYPE svg PUBLIC "-//W3C//DTD SVG 20010904//EN"
 "http://www.w3.org/TR/2001/REC-SVG-20010904/DTD/svg10.dtd">
<svg version="1.0" xmlns="http://www.w3.org/2000/svg"
 width="800.000000pt" height="726.000000pt" viewBox="0 0 800.000000 726.000000"
 preserveAspectRatio="xMidYMid meet">

<g transform="translate(0.000000,726.000000) scale(0.100000,-0.100000)"
fill="#000000" stroke="none">
<path d="M1825 7150 c-213 -24 -336 -62 -570 -178 -276 -137 -438 -253 -631
-454 -274 -284 -503 -706 -558 -1028 -40 -230 -44 -662 -10 -960 43 -384 164
-771 336 -1075 190 -335 440 -634 828 -988 315 -288 536 -466 1255 -1012 580
-440 825 -645 1096 -915 172 -172 264 -285 346 -426 26 -46 53 -84 59 -84 6 0
17 15 26 33 51 107 538 582 1033 1008 265 228 433 362 795 632 639 477 903
699 1220 1023 286 293 481 558 633 863 208 416 281 752 280 1301 0 349 -34
628 -107 882 -117 402 -449 820 -852 1074 -219 137 -489 239 -769 289 -140 26
-471 31 -620 11 -448 -62 -825 -245 -1125 -546 -174 -174 -295 -357 -426 -647
-43 -95 -81 -169 -85 -165 -3 4 -20 61 -36 128 -49 191 -134 347 -295 539
-199 239 -413 406 -708 555 -251 126 -329 142 -735 145 -165 2 -336 -1 -380
-5z"/>
</g>
</svg>
